# xmcd
#
# Track frame offsets:
#	187
#	11235
#	23205
#	34150
#	51475
#	66955
#	80197
#	96230
#	106497
#	119642
#
# Disc length: 1771 seconds
#
# Revision: 0
# Processed by: cddbd v1.5.2PL0 Copyright (c) Steve Scherf et al.
# Submitted via: EasyCDDAExtractor 16.0.9.1
#
DISCID=9206e90a
DTITLE=Crystal Gayle - Classic Crystal
DYEAR=1979
DGENRE=Country
TTITLE0=Somebody Loves You
TTITLE1=Don't It Make My Brown Eyes Blue
TTITLE2=Ready For The Times To Get Better
TTITLE3=You Never Miss A Real Good Thing ('Till He Says Goodbye)
TTITLE4=When I Dream
TTITLE5=I'll Do It All Over Again
TTITLE6=I'll Get Over You
TTITLE7=Wrong Road Again
TTITLE8=Talking In Your Sleep
TTITLE9=Why Have You Left The One You Left Me For
EXTD=
EXTT0=
EXTT1=
EXTT2=
EXTT3=
EXTT4=
EXTT5=
EXTT6=
EXTT7=
EXTT8=
EXTT9=
PLAYORDER=
